<?xml version="1.0" encoding="utf-8"?>
<!DOCTYPE svg PUBLIC "-//W3C//DTD SVG 20010904//EN" "http://www.w3.org/TR/2001/REC-SVG-20010904/DTD/svg10.dtd">
<svg version="1.0" xmlns="http://www.w3.org/2000/svg" width="50pt" height="50pt" viewBox="0 0 50 50" style="" preserveAspectRatio="xMidYMid meet">
<g fill="#FFFFFFFF" stroke="#FFFFFFFF">
<path d="M 1.000 25.000 L 1.000 49.000 25.000 49.000 L 49.000 49.000 49.000 25.000 L 49.000 1.000 25.000 1.000 L 1.000 1.000 1.000 25.000 M 24.209 20.750 L 24.419 30.500 24.746 20.750 C 25.068 11.143 25.109 11.000 27.536 11.000 C 29.990 11.000 30.000 11.041 30.000 20.965 C 30.000 29.793 29.779 31.048 28.066 31.965 C 25.291 33.450 22.385 33.242 20.571 31.429 C 19.365 30.222 19.000 27.667 19.000 20.429 C 19.000 11.038 19.010 11.000 21.500 11.000 C 23.981 11.000 24.002 11.072 24.209 20.750 M 26.812 36.265 C 27.224 38.400 24.113 39.801 22.992 37.986 C 21.838 36.120 22.966 33.847 24.864 34.212 C 25.751 34.383 26.628 35.307 26.812 36.265 "/></g>
<g fill="#020A0AFF" stroke="#020A0AFF">
<path d="M 19.000 20.429 C 19.000 27.667 19.365 30.222 20.571 31.429 C 22.385 33.242 25.291 33.450 28.066 31.965 C 29.779 31.048 30.000 29.793 30.000 20.965 C 30.000 11.041 29.990 11.000 27.536 11.000 C 25.109 11.000 25.068 11.143 24.746 20.750 L 24.419 30.500 24.209 20.750 C 24.002 11.072 23.981 11.000 21.500 11.000 C 19.010 11.000 19.000 11.038 19.000 20.429 "/></g>
<g fill="#020A0AFF" stroke="#020A0AFF">
<path d="M 22.718 35.292 C 22.425 36.056 22.548 37.269 22.992 37.986 C 24.113 39.801 27.224 38.400 26.812 36.265 C 26.397 34.106 23.443 33.404 22.718 35.292 "/></g>
</svg>
