<?xml version="1.0" encoding="utf-8"?>
<!DOCTYPE svg PUBLIC "-//W3C//DTD SVG 20010904//EN" "http://www.w3.org/TR/2001/REC-SVG-20010904/DTD/svg10.dtd">
<svg version="1.0" xmlns="http://www.w3.org/2000/svg" width="50pt" height="50pt" viewBox="0 0 50 50" style="" preserveAspectRatio="xMidYMid meet">
<g fill="#C34600FF" stroke="#C34600FF">
<path d="M 1.000 25.000 L 1.000 49.000 25.000 49.000 L 49.000 49.000 49.000 25.000 L 49.000 1.000 25.000 1.000 L 1.000 1.000 1.000 25.000 M 16.488 7.219 C 16.608 7.374 17.184 8.390 17.770 9.478 C 18.785 11.364 18.893 11.329 20.078 8.728 C 20.762 7.228 21.699 5.950 22.161 5.889 C 27.410 5.194 31.000 7.367 31.000 11.241 C 31.000 14.783 27.314 15.232 26.820 11.750 C 26.644 10.513 25.825 9.500 25.000 9.500 C 22.578 9.500 22.694 13.563 25.195 16.309 C 31.007 22.691 31.460 23.732 30.545 28.612 C 30.113 30.913 29.261 31.969 27.474 32.417 C 23.803 33.339 20.277 32.118 19.527 29.665 C 19.022 28.013 18.725 27.851 18.272 28.982 C 16.571 33.230 11.194 34.418 8.406 31.161 C 6.070 28.433 6.146 8.097 8.499 6.377 C 9.893 5.358 15.509 5.950 16.488 7.219 M 36.500 17.751 C 36.500 25.925 36.833 29.002 37.717 29.001 C 38.585 29.000 39.016 25.769 39.217 17.762 C 39.459 8.142 39.743 6.477 41.190 6.200 C 42.689 5.913 42.916 7.255 43.190 18.059 C 43.475 29.248 43.339 30.355 41.527 31.621 C 40.443 32.380 38.498 33.000 37.206 33.000 C 32.666 33.000 32.000 31.082 32.000 18.002 C 32.000 5.983 32.023 5.864 34.250 6.180 C 36.431 6.490 36.500 6.845 36.500 17.751 M 23.000 38.964 C 23.000 38.369 23.451 38.161 24.003 38.502 C 24.626 38.887 24.663 39.761 24.101 40.811 C 23.604 41.740 23.182 42.725 23.163 43.000 C 23.018 45.133 21.601 46.784 20.333 46.298 C 19.288 45.897 19.179 45.507 19.974 45.016 C 20.667 44.588 20.851 43.255 20.443 41.628 C 19.904 39.483 19.493 39.176 18.385 40.096 C 17.623 40.728 17.000 42.090 17.000 43.122 C 17.000 44.155 16.550 45.000 16.000 45.000 C 15.450 45.000 15.000 43.458 15.000 41.573 C 15.000 37.603 17.173 36.510 20.750 38.681 C 22.189 39.554 23.000 39.656 23.000 38.964 M 30.826 40.354 C 31.040 42.223 30.473 43.842 29.183 45.044 C 26.658 47.396 26.000 46.657 26.000 41.470 C 26.000 37.751 26.256 37.286 28.250 37.387 C 29.948 37.472 30.580 38.201 30.826 40.354 M 13.500 36.992 C 13.500 37.797 12.935 38.539 12.245 38.640 C 11.555 38.742 11.244 38.414 11.554 37.912 C 11.864 37.410 11.627 37.000 11.028 37.000 C 9.529 37.000 8.646 39.636 9.447 41.722 C 10.013 43.199 10.242 43.234 11.054 41.972 C 11.885 40.679 12.117 40.683 12.964 42.000 C 13.749 43.222 13.332 43.500 10.714 43.500 C 7.641 43.500 7.515 43.347 7.850 40.000 C 8.043 38.075 8.718 36.163 9.350 35.751 C 11.089 34.619 13.500 35.339 13.500 36.992 M 41.813 40.827 C 42.089 43.619 41.830 44.000 39.657 44.000 C 37.169 44.000 37.027 43.226 38.589 38.167 C 39.325 35.783 41.492 37.571 41.813 40.827 M 35.409 39.934 C 35.542 42.530 35.186 44.000 34.425 44.000 C 32.810 44.000 31.950 38.963 33.174 36.675 C 34.518 34.163 35.162 35.103 35.409 39.934 M 30.000 41.559 C 30.000 42.352 29.325 43.000 28.500 43.000 C 26.994 43.000 26.444 40.889 27.639 39.694 C 28.573 38.761 30.000 39.888 30.000 41.559 "/></g>
<g fill="#FFFFFFFF" stroke="#FFFFFFFF">
<path d="M 8.571 7.571 C 7.345 8.798 7.000 11.419 7.000 19.515 C 7.000 29.099 7.169 30.005 9.223 31.443 C 12.160 33.501 13.593 33.407 16.000 31.000 C 17.729 29.271 18.000 27.667 18.000 19.155 C 18.000 10.887 17.707 9.045 16.171 7.655 C 13.867 5.569 10.609 5.533 8.571 7.571 M 14.000 18.833 C 14.000 29.103 13.572 30.719 11.342 28.869 C 10.429 28.111 10.000 25.261 10.000 19.959 C 10.000 11.298 10.547 9.000 12.607 9.000 C 13.703 9.000 14.000 11.095 14.000 18.833 "/></g>
<g fill="#FFFFFFFF" stroke="#FFFFFFFF">
<path d="M 32.000 18.000 C 32.000 27.667 32.242 29.242 34.000 31.000 C 36.407 33.407 37.840 33.501 40.777 31.443 C 42.854 29.989 43.000 29.135 43.000 18.443 C 43.000 8.938 42.746 7.000 41.500 7.000 C 40.263 7.000 40.000 8.820 40.000 17.378 C 40.000 24.839 39.623 28.068 38.658 28.869 C 37.920 29.481 37.020 29.687 36.658 29.325 C 36.296 28.963 36.000 23.792 36.000 17.833 C 36.000 7.667 35.877 7.000 34.000 7.000 C 32.121 7.000 32.000 7.667 32.000 18.000 "/></g>
<g fill="#FFFFFFFF" stroke="#FFFFFFFF">
<path d="M 21.750 7.080 C 18.631 8.897 19.478 15.002 23.579 20.265 C 25.880 23.219 27.040 25.687 26.829 27.179 C 26.407 30.154 23.601 30.209 23.180 27.250 C 22.753 24.237 20.000 24.319 20.000 27.345 C 20.000 32.972 27.999 34.764 29.970 29.579 C 31.240 26.239 30.236 23.150 26.287 18.247 C 24.142 15.585 22.981 13.154 23.181 11.747 C 23.595 8.828 26.405 8.830 26.820 11.750 C 27.032 13.243 27.825 14.000 29.178 14.000 C 30.902 14.000 31.110 13.576 30.528 11.256 C 29.249 6.159 25.991 4.610 21.750 7.080 "/></g>
<g fill="#C34600FF" stroke="#C34600FF">
<path d="M 11.000 19.000 C 11.000 27.222 11.267 29.000 12.500 29.000 C 13.715 29.000 14.000 27.398 14.000 20.582 C 14.000 11.953 13.463 9.000 11.893 9.000 C 11.402 9.000 11.000 13.500 11.000 19.000 "/></g>
<g fill="#C34600FF" stroke="#C34600FF">
<path d="M 19.000 20.226 C 19.000 24.320 19.215 24.757 21.000 24.290 C 22.521 23.892 23.000 24.259 23.000 25.824 C 23.000 28.348 24.788 29.612 26.267 28.133 C 27.588 26.812 26.000 23.481 21.819 18.797 L 19.000 15.640 19.000 20.226 "/></g>
<g fill="#FFFFFFFF" stroke="#FFFFFFFF">
<path d="M 26.015 42.180 C 26.024 44.556 26.361 46.017 26.765 45.427 C 27.169 44.837 28.319 44.051 29.320 43.682 C 31.948 42.711 31.147 38.592 28.250 38.180 C 26.213 37.891 26.001 38.269 26.015 42.180 "/></g>
<g fill="#EFCEBBFF" stroke="#EFCEBBFF">
<path d="M 39.430 7.321 C 39.151 8.048 39.071 13.110 39.252 18.571 L 39.581 28.500 39.791 17.823 C 39.971 8.601 40.238 7.084 41.750 6.689 C 43.390 6.261 43.388 6.225 41.719 6.116 C 40.739 6.052 39.709 6.595 39.430 7.321 "/></g>
<g fill="#FFFFFFFF" stroke="#FFFFFFFF">
<path d="M 38.688 38.646 C 38.309 39.024 38.000 40.383 38.000 41.667 C 38.000 43.358 38.568 44.000 40.066 44.000 C 41.719 44.000 42.069 43.464 41.816 41.327 C 41.500 38.653 39.981 37.352 38.688 38.646 M 41.000 41.000 C 41.000 42.100 40.550 43.000 40.000 43.000 C 39.450 43.000 39.000 42.100 39.000 41.000 C 39.000 39.900 39.450 39.000 40.000 39.000 C 40.550 39.000 41.000 39.900 41.000 41.000 "/></g>
<g fill="#CD682FFF" stroke="#CD682FFF">
<path d="M 18.257 19.500 C 18.314 28.417 18.320 28.438 18.907 21.789 C 19.233 18.098 19.207 14.048 18.850 12.789 C 18.492 11.530 18.225 14.550 18.257 19.500 "/></g>
<g fill="#FFFFFFFF" stroke="#FFFFFFFF">
<path d="M 8.190 39.750 C 8.439 42.762 8.943 43.563 10.750 43.820 C 11.988 43.995 13.000 43.700 13.000 43.163 C 13.000 42.626 12.100 42.423 11.000 42.710 C 9.305 43.154 9.000 42.741 9.000 40.000 C 9.000 37.259 9.305 36.846 11.000 37.290 C 12.100 37.577 13.000 37.405 13.000 36.906 C 13.000 36.408 11.848 36.000 10.440 36.000 C 8.092 36.000 7.905 36.312 8.190 39.750 "/></g>
<g fill="#FFFFFFFF" stroke="#FFFFFFFF">
<path d="M 20.030 38.185 C 20.014 38.562 20.467 40.099 21.039 41.602 C 21.822 43.661 21.760 44.535 20.789 45.152 C 19.875 45.731 19.847 45.974 20.691 45.985 C 22.228 46.004 22.632 45.255 23.380 41.000 C 23.778 38.735 23.701 38.190 23.162 39.456 C 22.336 41.397 22.321 41.397 21.195 39.456 C 20.571 38.380 20.047 37.808 20.030 38.185 "/></g>
<g fill="#FFFFFFFF" stroke="#FFFFFFFF">
<path d="M 32.765 37.276 C 32.072 39.251 33.484 43.509 34.795 43.400 C 35.458 43.345 35.550 43.233 35.000 43.150 C 33.649 42.947 33.717 39.000 35.071 39.000 C 35.661 39.000 35.479 38.337 34.669 37.526 C 33.571 36.428 33.085 36.364 32.765 37.276 "/></g>
<g fill="#FFFFFFFF" stroke="#FFFFFFFF">
<path d="M 16.086 41.191 L 16.172 44.500 16.998 41.755 C 17.470 40.186 17.433 38.768 16.912 38.446 C 16.411 38.136 16.039 39.371 16.086 41.191 "/></g>
<g fill="#EFCEBBFF" stroke="#EFCEBBFF">
<path d="M 19.374 25.467 C 19.065 26.274 19.043 27.511 19.327 28.217 C 19.610 28.923 19.878 28.520 19.921 27.323 C 19.964 26.126 20.788 24.941 21.750 24.689 C 23.390 24.261 23.388 24.225 21.719 24.116 C 20.739 24.052 19.684 24.660 19.374 25.467 "/></g>
<g fill="#EFCEBBFF" stroke="#EFCEBBFF">
<path d="M 33.951 41.500 C 33.734 43.550 33.879 43.956 34.411 42.783 C 34.839 41.839 34.982 40.489 34.728 39.783 C 34.475 39.077 34.125 39.850 33.951 41.500 "/></g>
<g fill="#CD682FFF" stroke="#CD682FFF">
<path d="M 39.000 41.559 C 39.000 42.416 39.450 42.840 40.000 42.500 C 40.550 42.160 41.000 41.459 41.000 40.941 C 41.000 40.423 40.550 40.000 40.000 40.000 C 39.450 40.000 39.000 40.702 39.000 41.559 "/></g>
<g fill="#EFCEBBFF" stroke="#EFCEBBFF">
<path d="M 29.063 41.191 C 29.029 42.121 29.444 43.156 29.987 43.492 C 30.626 43.887 30.648 43.292 30.050 41.801 C 29.395 40.167 29.108 39.991 29.063 41.191 "/></g>
<g fill="#EFCEBBFF" stroke="#EFCEBBFF">
<path d="M 20.575 39.759 C 20.167 40.166 20.208 40.536 20.667 40.579 C 21.125 40.622 22.096 40.847 22.824 41.079 C 23.821 41.396 23.798 41.193 22.732 40.259 C 21.953 39.576 20.982 39.351 20.575 39.759 "/></g>
<g fill="#EFCEBBFF" stroke="#EFCEBBFF">
<path d="M 23.877 29.277 C 24.399 29.799 25.397 29.873 26.096 29.441 C 26.965 28.904 26.666 28.604 25.147 28.492 C 23.749 28.389 23.280 28.680 23.877 29.277 "/></g>
</svg>
