<?xml version="1.0" encoding="UTF-8"?>
<svg xmlns="http://www.w3.org/2000/svg" xmlns:xlink="http://www.w3.org/1999/xlink" width="67px" height="67px" viewBox="0 0 67 67" version="1.1">
<g id="surface1">
<path style="fill-rule:nonzero;fill:rgb(100%,100%,100%);fill-opacity:1;stroke-width:1;stroke-linecap:butt;stroke-linejoin:miter;stroke:rgb(100%,100%,100%);stroke-opacity:1;stroke-miterlimit:4;" d="M 0.999067 100.999813 L 0.999067 201.00056 L 201.00056 201.00056 L 201.00056 0.999067 L 0.999067 0.999067 L 0.999067 100.999813 M 64.774813 78.56194 C 65.997201 79.408209 66.996269 80.983209 66.996269 82.052799 C 66.996269 83.851119 66.232276 84.003918 57.252425 84.015672 C 46.815112 84.027425 45.945336 84.274254 44.111754 87.753358 C 42.936381 89.998321 42.948134 89.998321 50.964179 89.998321 C 58.157463 89.998321 59.003731 90.198134 59.003731 91.878918 C 59.003731 95.017164 56.041791 96.474627 48.601679 97.003545 C 41.7375 97.485448 41.490672 97.591231 41.185075 100.247575 L 40.867724 102.997948 L 54.713619 102.997948 L 61.107649 95.252239 C 64.622015 90.997388 68.759328 85.790485 70.310821 83.674813 C 73.754664 78.996828 78.232836 76.998694 85.33209 76.998694 C 92.666418 76.998694 96.239552 79.678545 95.804664 84.86194 C 95.522575 88.164739 95.19347 88.529104 92.255037 88.811194 C 89.375373 89.093284 89.034515 88.858209 89.246082 86.81306 C 89.481157 84.650373 89.105037 84.474067 83.533769 84.191978 C 78.785261 83.945149 77.292537 84.238993 76.29347 85.614179 C 70.616418 93.371642 58.169216 107.38209 55.900746 108.557463 C 54.231716 109.415485 50.247201 110.003172 46.004104 110.003172 C 39.727612 110.003172 38.611007 109.709328 36.354291 107.440858 C 33.521642 104.608209 33.521642 103.515112 36.448321 92.008209 C 39.46903 80.089925 43.288993 77.010448 55.03097 76.998694 C 60.226119 76.998694 63.246828 77.480597 64.774813 78.56194 M 143.994963 115.997575 C 146.533769 118.536381 146.510261 121.451306 143.889179 131.183396 C 141.503172 140.045709 139.128918 143.630597 134.368657 145.616978 C 129.255784 147.756157 120.381716 147.403545 116.902612 144.935261 C 113.30597 142.372948 113.188433 139.693097 116.209142 128.703358 C 117.866418 122.638433 119.229851 119.841045 121.733396 117.325746 C 124.989179 114.081716 125.271269 113.99944 133.534142 113.99944 C 140.668657 113.99944 142.314179 114.316791 143.994963 115.997575 M 194.994403 77.77444 C 194.994403 78.209328 194.300933 79.549254 193.44291 80.771642 C 192.091231 82.699254 190.974627 83.004851 185.097761 83.004851 L 178.315858 83.004851 L 176.082649 91.244216 C 170.781716 110.84944 171.146082 110.003172 167.92556 110.003172 C 166.315299 110.003172 165.010634 109.885634 165.022388 109.74459 C 165.034142 109.615299 166.562127 103.538619 168.407463 96.251306 L 171.780784 83.004851 L 154.585075 83.004851 C 142.290672 83.004851 136.883955 83.357463 135.649813 84.2625 C 134.168843 85.343843 130.066791 98.061381 130.019776 101.716791 C 130.008022 102.56306 132.89944 103.009701 139.66959 103.209515 C 150.083396 103.526866 151.611381 104.384888 148.061754 107.934515 C 146.28694 109.709328 144.758955 110.003172 137.189552 110.003172 C 129.549627 110.003172 128.068657 109.709328 126.058769 107.840485 C 124.001866 105.924627 123.813806 105.066604 124.342724 100.094776 C 125.635634 87.976679 129.74944 80.066418 136.002425 77.727425 C 138.329664 76.845896 194.994403 76.904664 194.994403 77.77444 M 121.839179 78.597201 C 125.90597 81.441604 126.387873 84.685634 123.613993 90.409701 C 122.191791 93.336381 121.333769 96.568657 121.592351 98.002612 C 121.839179 99.377799 121.416045 102.527799 120.663806 104.996082 C 119.453172 108.980597 118.924254 109.533022 116.115112 109.815112 C 113.070896 110.120709 112.965112 110.003172 113.68209 107.311567 C 114.09347 105.771828 114.446082 103.150746 114.46959 101.505224 C 114.504851 98.519776 114.46959 98.496269 108.298881 98.202425 L 102.104664 97.908582 L 101.129104 101.705037 C 100.588433 103.797201 100.000746 106.394776 99.812687 107.499627 C 99.577612 108.933582 98.566791 109.591791 96.239552 109.815112 C 94.464739 109.991418 92.995522 109.850373 92.995522 109.521269 C 92.995522 109.18041 94.876119 101.728545 97.168097 92.960261 L 101.328918 76.998694 L 110.43806 76.998694 C 117.184701 76.998694 120.146642 77.421828 121.839179 78.597201 M 156.7125 116.244403 C 156.43041 117.490299 155.031716 122.932276 153.597761 128.350746 C 152.17556 133.769216 151.258769 138.611754 151.564366 139.10541 C 152.375373 140.421828 155.760448 140.186754 156.688993 138.752799 C 157.135634 138.059328 158.88694 132.323507 160.591231 126 C 163.647201 114.575373 163.694216 114.493097 166.832463 114.1875 C 168.572015 114.011194 169.994216 114.058209 169.994216 114.28153 C 169.994216 114.857463 166.291791 128.879664 165.057649 132.99347 C 163.365112 138.576493 163.670709 139.998694 166.550373 139.998694 C 169.477052 139.998694 171.063806 137.025 172.920896 127.998134 C 175.130597 117.24347 176.482276 114.528358 179.796828 114.199254 L 182.79403 113.893657 L 179.73806 126.199813 C 178.057276 132.958209 175.882836 139.657836 174.907276 141.068284 C 173.919963 142.490485 171.240112 144.488619 168.948134 145.522948 C 165.034142 147.286007 164.5875 147.297761 161.919403 145.769776 C 159.298321 144.265299 158.79291 144.253545 155.889739 145.711007 C 151.928731 147.685634 148.179291 146.580784 146.063619 142.807836 C 144.71194 140.386567 144.782463 139.258209 146.933396 130.325373 C 151.058955 113.235448 150.718097 113.99944 154.16194 113.99944 C 156.830037 113.99944 157.170896 114.293284 156.7125 116.244403 M 32.604851 78.773507 C 35.261194 80.947948 36.166231 83.486754 35.390485 86.577985 C 34.93209 88.423321 34.109328 88.999254 31.958396 88.999254 C 29.619403 88.999254 29.078731 88.529104 28.820149 86.248881 C 28.526306 83.698321 28.138433 83.475 23.413433 83.204664 C 19.605224 82.981343 17.748134 83.38097 15.996828 84.803172 C 12.106343 87.953172 13.904664 89.692724 21.556343 90.186381 C 27.05709 90.538993 28.608582 91.032649 30.136567 92.913246 C 32.534328 95.875187 32.499067 99.671642 30.042537 103.703172 C 27.28041 108.228358 23.237127 110.003172 15.679478 110.003172 C 7.27556 110.003172 3.737687 107.581903 4.196082 102.139925 C 4.466418 98.825373 4.772015 98.496269 7.498881 98.496269 C 9.849627 98.496269 10.566604 98.989925 10.825187 100.752985 C 11.107276 102.809888 11.671455 102.997948 17.442537 102.997948 C 24.048134 102.997948 26.786754 101.505224 25.646642 98.508022 C 25.211754 97.403172 23.507463 97.003545 19.170336 97.003545 C 14.715672 97.003545 12.623507 96.486381 10.637127 94.923134 C 5.41847 90.821082 8.086567 81.606157 15.409142 78.420896 C 19.96959 76.434515 30.007276 76.646082 32.604851 78.773507 M 88.999254 115.174813 C 88.999254 115.809515 88.258769 117.161194 87.341978 118.172015 C 86.013806 119.641231 84.180224 120.005597 77.9625 120.005597 C 69.922948 120.005597 68.771082 120.534515 67.736754 124.754104 C 67.196082 126.963806 67.337127 126.999067 76.599067 126.999067 C 81.770709 126.999067 86.002052 127.351679 86.002052 127.774813 C 86.002052 128.209701 85.296828 129.549627 84.438806 130.772015 C 83.040112 132.793657 82.052799 133.005224 74.072015 133.005224 L 65.244963 133.005224 L 64.610261 136.190485 C 62.694403 145.805037 62.059701 147.003918 58.956716 147.003918 C 57.334701 147.003918 56.00653 146.886381 56.018284 146.745336 C 56.018284 146.616045 57.546269 140.504104 59.403358 133.169776 C 62.059701 122.66194 63.364366 119.229851 65.574067 116.926119 C 68.312687 114.058209 68.594776 113.99944 78.691231 113.99944 C 85.896269 113.99944 88.999254 114.352052 88.999254 115.174813 M 97.356157 113.764366 C 97.614739 114.1875 96.498134 119.664739 94.876119 125.964739 C 93.265858 132.241231 92.161007 137.977052 92.431343 138.69403 C 92.795709 139.622575 95.369776 139.998694 101.446455 139.998694 C 109.850373 139.998694 109.96791 140.033955 111.472388 142.948881 C 112.318657 144.570896 113.000373 146.145896 113.000373 146.451493 C 113.000373 146.75709 108.005037 147.003918 101.904851 147.003918 L 90.797575 147.003918 L 87.835634 143.818657 C 85.755224 141.597201 85.038246 140.010448 85.449627 138.564739 C 85.766978 137.436381 87.200933 131.771082 88.634888 126 C 90.05709 120.228918 91.690858 114.939739 92.243284 114.246269 C 93.348134 112.871082 96.615672 112.565485 97.356157 113.764366 M 71.439179 99.495336 C 72.849627 102.892164 73.061194 102.997948 78.373881 102.997948 C 83.028358 102.997948 84.156716 102.621828 85.825746 100.494403 C 87.024627 98.978172 88.79944 98.002612 90.397948 98.002612 C 93.406903 98.002612 93.594963 98.94291 91.455784 103.091978 C 88.9875 107.875746 84.521082 109.991418 76.928172 109.991418 C 70.075746 110.003172 67.348881 108.475187 65.656343 103.691418 C 65.139179 102.222201 68.383209 96.004478 69.676119 96.004478 C 69.840672 96.004478 70.628172 97.579478 71.439179 99.495336 M 152.422388 90.879851 C 152.727985 91.373507 152.046269 92.948507 150.91791 94.382463 C 149.02556 96.780224 148.249813 97.003545 141.432649 97.003545 C 137.342351 97.003545 134.004291 96.58041 134.004291 96.063246 C 134.004291 95.546082 134.439179 93.971082 134.979851 92.560634 C 135.908396 90.104104 136.284515 89.998321 143.912687 89.998321 C 148.296828 89.998321 152.128545 90.397948 152.422388 90.879851 " transform="matrix(0.332341,0,0,0.332341,0,0)"/>
<path style="fill-rule:nonzero;fill:rgb(9.803922%,50.980392%,100%);fill-opacity:1;stroke-width:1;stroke-linecap:butt;stroke-linejoin:miter;stroke:rgb(9.803922%,50.980392%,100%);stroke-opacity:1;stroke-miterlimit:4;" d="M 125.49459 115.398134 C 120.804851 117.478545 119.370896 119.817537 116.64403 129.819963 C 112.80056 143.92444 114.410821 146.416231 126.963806 145.852052 C 137.777239 145.358396 140.010448 143.23097 143.51306 130.149067 C 144.876493 125.036194 146.004851 120.416978 146.004851 119.876306 C 146.004851 119.347388 144.9 117.807649 143.548321 116.45597 C 141.444403 114.352052 140.175 114.011194 134.791791 114.034701 C 131.336194 114.058209 127.151866 114.669403 125.49459 115.398134 M 139.328731 120.475746 C 140.633396 121.78041 140.562873 122.885261 138.658769 129.831716 C 135.696828 140.633396 135.156157 141.15056 127.093097 140.786194 L 120.499254 140.504104 L 120.58153 136.496082 C 120.734328 129.831716 123.778545 121.028172 126.293843 120.017351 C 129.902239 118.559888 137.694963 118.841978 139.328731 120.475746 " transform="matrix(0.332341,0,0,0.332341,0,0)"/>
<path style="fill-rule:nonzero;fill:rgb(38.039216%,100%,100%);fill-opacity:1;stroke-width:1;stroke-linecap:butt;stroke-linejoin:miter;stroke:rgb(38.039216%,100%,100%);stroke-opacity:1;stroke-miterlimit:4;" d="M 42.701306 80.959701 C 39.950933 83.369216 38.916604 85.473134 37.153545 92.208022 C 33.239552 107.1 34.285634 109.004104 46.391978 109.004104 C 50.646828 109.004104 54.983955 108.545709 56.030037 107.98153 C 57.064366 107.429104 62.482836 101.552239 68.054104 94.934888 L 78.185821 82.910821 L 83.839366 83.204664 C 88.846455 83.463246 89.539925 83.75709 89.822015 85.755224 C 90.045336 87.353731 90.809328 88.000187 92.501866 88.000187 C 95.863433 88.000187 96.756716 84.485821 94.241418 81.124254 C 92.384328 78.667724 91.749627 78.503172 84.050933 78.503172 C 74.694963 78.503172 76.19944 77.421828 63.070522 93.583209 C 59.532649 97.93209 55.959515 102.057649 55.125 102.751119 C 54.302239 103.432836 51.058209 103.997015 47.931716 103.997015 C 41.13806 103.997015 39.057649 102.375 40.832463 98.472761 C 41.866791 96.216045 42.513246 96.004478 48.484142 96.004478 C 53.902612 96.004478 55.371828 95.628358 57.252425 93.747761 L 59.497388 91.502799 L 51.246269 91.208955 C 42.278172 90.891604 41.420149 90.174627 44.911007 85.861007 C 46.627052 83.733582 47.825933 83.451493 56.935075 83.004851 L 67.043284 82.49944 L 65.468284 80.254478 C 64.034328 78.197575 63.082276 77.997761 54.972201 77.997761 C 46.533022 77.997761 45.898321 78.15056 42.701306 80.959701 " transform="matrix(0.332341,0,0,0.332341,0,0)"/>
<path style="fill-rule:nonzero;fill:rgb(38.039216%,100%,100%);fill-opacity:1;stroke-width:1;stroke-linecap:butt;stroke-linejoin:miter;stroke:rgb(38.039216%,100%,100%);stroke-opacity:1;stroke-miterlimit:4;" d="M 100.529664 81.747201 C 100.153545 83.815858 98.53153 90.221642 96.933022 96.004478 C 93.395149 108.710261 93.383396 109.004104 96.392351 109.004104 C 98.472761 109.004104 98.966418 108.263619 100.188806 103.244776 L 101.5875 97.497201 L 106.759142 97.203358 C 114.069963 96.76847 116.373694 98.202425 115.539179 102.65709 C 115.174813 104.572948 114.634142 106.782649 114.328545 107.570149 C 113.952425 108.58097 114.540112 109.004104 116.350187 109.004104 C 118.524627 109.004104 119.10056 108.345896 120.052612 104.819776 C 120.663806 102.516045 120.969403 99.260261 120.710821 97.567724 C 120.416978 95.616604 120.898881 93.583209 122.027239 91.984701 C 124.624813 88.305784 124.648321 86.965858 122.180037 82.252612 L 119.958582 77.997761 L 101.223134 77.997761 L 100.529664 81.747201 M 119.805784 85.684701 C 120.39347 89.786754 116.761567 91.996455 109.427239 91.996455 C 103.644403 91.996455 102.927425 91.796642 103.385821 90.245149 C 103.66791 89.293097 104.208582 87.247948 104.572948 85.708209 C 105.231157 82.934328 105.301679 82.922575 112.365672 83.204664 C 118.841978 83.475 119.523694 83.698321 119.805784 85.684701 " transform="matrix(0.332341,0,0,0.332341,0,0)"/>
<path style="fill-rule:nonzero;fill:rgb(9.803922%,50.980392%,100%);fill-opacity:1;stroke-width:1;stroke-linecap:butt;stroke-linejoin:miter;stroke:rgb(9.803922%,50.980392%,100%);stroke-opacity:1;stroke-miterlimit:4;" d="M 151.670149 114.751679 C 151.411567 115.16306 149.801306 121.110448 148.073507 127.974627 C 144.982276 140.292537 144.970522 140.480597 146.827612 142.972388 C 149.049067 145.96959 152.96306 146.66306 156.818284 144.747201 C 159.133769 143.583582 159.815485 143.571828 160.83806 144.676679 C 163.647201 147.673881 172.450746 144.758955 175.01306 139.975187 C 176.023881 138.082836 181.936007 116.679291 181.983022 114.751679 C 181.994776 114.340299 180.972201 113.99944 179.726306 113.99944 C 177.293284 113.99944 176.341231 116.373694 172.403731 132.335261 C 171.07556 137.683209 170.19403 139.411007 168.325187 140.26903 C 166.456343 141.115299 165.610075 141.033022 164.505224 139.928172 C 163.282836 138.69403 163.482649 137.001493 166.044963 127.504478 C 169.59459 114.28153 169.606343 113.99944 166.703172 113.99944 C 164.611007 113.99944 164.152612 115.022015 161.461007 125.729664 C 158.487313 137.53041 156.359888 141.409142 153.186381 140.797948 C 150.553545 140.304291 150.718097 136.390299 153.868097 124.754104 L 156.771269 113.99944 L 154.44403 113.99944 C 153.162873 113.99944 151.916978 114.340299 151.670149 114.751679 " transform="matrix(0.332341,0,0,0.332341,0,0)"/>
<path style="fill-rule:nonzero;fill:rgb(38.039216%,100%,100%);fill-opacity:1;stroke-width:1;stroke-linecap:butt;stroke-linejoin:miter;stroke:rgb(38.039216%,100%,100%);stroke-opacity:1;stroke-miterlimit:4;" d="M 12.447201 81.253545 C 10.155224 83.369216 8.744776 85.719963 8.392164 88.000187 C 7.59291 93.20709 9.555784 95.169963 16.079104 95.687127 C 24.988433 96.380597 25.999254 96.76847 25.999254 99.483582 C 25.999254 102.856903 23.049067 104.161567 16.220149 103.797201 C 11.154291 103.538619 10.460821 103.244776 10.178731 101.246642 C 9.943657 99.624627 9.191418 99.001679 7.428358 99.001679 C 5.300933 99.001679 4.995336 99.448321 4.995336 102.645336 C 4.995336 107.79347 7.016978 108.933582 16.173134 108.968843 C 22.955037 108.992351 24.200933 108.698507 26.857276 106.465299 C 28.514552 105.078358 30.395149 102.327985 31.041604 100.353358 C 32.075933 97.238619 31.981903 96.451119 30.265858 94.135634 C 28.573321 91.867164 27.37444 91.432276 21.615112 90.997388 C 14.175 90.444963 12.153358 88.905224 14.410075 85.508396 C 15.526679 83.827612 16.843097 83.498507 22.625933 83.498507 C 29.04347 83.498507 29.525373 83.651306 29.83097 85.813993 C 30.077799 87.530037 30.700746 88.035448 32.322761 87.812127 C 35.096642 87.4125 35.707836 83.733582 33.556903 80.442537 C 32.075933 78.185821 31.335448 77.997761 23.965858 77.997761 C 16.337687 77.997761 15.808769 78.15056 12.447201 81.253545 " transform="matrix(0.332341,0,0,0.332341,0,0)"/>
<path style="fill-rule:nonzero;fill:rgb(9.803922%,50.980392%,100%);fill-opacity:1;stroke-width:1;stroke-linecap:butt;stroke-linejoin:miter;stroke:rgb(9.803922%,50.980392%,100%);stroke-opacity:1;stroke-miterlimit:4;" d="M 68.206903 115.66847 C 66.396828 116.561754 64.504478 118.042724 64.022575 118.971269 C 63.235075 120.428731 57.005597 143.947948 57.005597 145.440672 C 57.005597 145.746269 58.028172 146.004851 59.274067 146.004851 C 61.260448 146.004851 61.789366 145.08806 63.364366 138.999627 L 65.162687 131.994403 L 73.883955 131.994403 C 82.029291 131.994403 85.002985 131.148134 85.002985 128.797388 C 85.002985 128.3625 80.947948 127.998134 75.999627 127.998134 C 67.266604 127.998134 66.996269 127.927612 66.996269 125.694403 C 66.996269 120.793097 69.158955 119.535448 78.550187 118.994776 C 86.460448 118.548134 87.353731 118.289552 88.10597 116.244403 C 88.928731 114.022948 88.846455 113.99944 80.219216 114.022948 C 74.236567 114.034701 70.463619 114.551866 68.206903 115.66847 " transform="matrix(0.332341,0,0,0.332341,0,0)"/>
<path style="fill-rule:nonzero;fill:rgb(100%,100%,100%);fill-opacity:1;stroke-width:1;stroke-linecap:butt;stroke-linejoin:miter;stroke:rgb(100%,100%,100%);stroke-opacity:1;stroke-miterlimit:4;" d="M 125.2125 121.251493 C 123.860821 122.873507 119.958582 138.118097 120.616791 139.187687 C 120.887127 139.634328 124.001866 139.998694 127.539739 139.998694 C 133.111007 139.998694 134.133582 139.704851 135.344216 137.753731 C 137.130784 134.885821 140.233769 122.191791 139.469776 120.945896 C 138.588246 119.51194 126.434888 119.770522 125.2125 121.251493 " transform="matrix(0.332341,0,0,0.332341,0,0)"/>
<path style="fill-rule:nonzero;fill:rgb(9.803922%,50.980392%,100%);fill-opacity:1;stroke-width:1;stroke-linecap:butt;stroke-linejoin:miter;stroke:rgb(9.803922%,50.980392%,100%);stroke-opacity:1;stroke-miterlimit:4;" d="M 89.011007 127.104851 L 85.778731 140.222015 L 87.741604 142.854851 C 89.645709 145.417164 90.080597 145.511194 101.39944 145.78153 L 113.082649 146.063619 L 111.425373 143.536567 C 109.873881 141.162313 109.239179 140.997761 101.505224 140.997761 C 95.898694 140.997761 92.889739 140.574627 92.149254 139.681343 C 91.35 138.717537 91.831903 135.414739 94.029851 127.046082 C 95.663619 120.828358 97.003545 115.339366 97.003545 114.869216 C 97.003545 114.387313 95.933955 113.99944 94.629291 113.99944 C 92.407836 113.99944 92.031716 114.88097 89.011007 127.104851 " transform="matrix(0.332341,0,0,0.332341,0,0)"/>
<path style="fill-rule:nonzero;fill:rgb(38.039216%,100%,100%);fill-opacity:1;stroke-width:1;stroke-linecap:butt;stroke-linejoin:miter;stroke:rgb(38.039216%,100%,100%);stroke-opacity:1;stroke-miterlimit:4;" d="M 67.595709 99.213246 C 65.597575 102.257463 66.314552 106.559328 69.053172 108.028545 C 70.052239 108.557463 74.095522 109.004104 78.033022 109.004104 C 84.850187 109.004104 85.367351 108.839552 88.599627 105.595522 C 90.46847 103.726679 91.996455 101.481716 91.996455 100.600187 C 91.996455 98.108396 88.035448 98.684328 85.825746 101.505224 C 84.156716 103.620896 83.028358 103.997015 78.456157 103.997015 C 73.2375 103.997015 72.978918 103.867724 71.15709 100.329851 L 69.276493 96.650933 L 67.595709 99.213246 " transform="matrix(0.332341,0,0,0.332341,0,0)"/>
<path style="fill-rule:nonzero;fill:rgb(56.078431%,100%,100%);fill-opacity:1;stroke-width:1;stroke-linecap:butt;stroke-linejoin:miter;stroke:rgb(56.078431%,100%,100%);stroke-opacity:1;stroke-miterlimit:4;" d="M 134.321642 79.184888 C 132.617351 80.007649 132.358769 80.60709 133.146269 81.876493 C 134.027799 83.275187 136.131716 83.451493 148.825746 83.169403 C 156.888806 82.993097 163.635448 82.6875 163.823507 82.511194 C 164.011567 82.323134 163.658955 81.230037 163.047761 80.089925 C 162.001679 78.138806 161.120149 78.009515 149.213619 78.068284 C 142.220149 78.103545 135.520522 78.608955 134.321642 79.184888 " transform="matrix(0.332341,0,0,0.332341,0,0)"/>
<path style="fill-rule:nonzero;fill:rgb(70.980392%,100%,100%);fill-opacity:1;stroke-width:1;stroke-linecap:butt;stroke-linejoin:miter;stroke:rgb(70.980392%,100%,100%);stroke-opacity:1;stroke-miterlimit:4;" d="M 173.778918 82.534701 C 175.965112 86.190112 176.564552 86.683769 176.823134 85.038246 C 177.105224 83.216418 177.869216 83.004851 183.99291 83.004851 C 190.633769 83.004851 193.995336 81.629664 193.995336 78.926306 C 193.995336 78.409142 188.917724 77.997761 182.523694 77.997761 L 171.052052 77.997761 L 173.778918 82.534701 " transform="matrix(0.332341,0,0,0.332341,0,0)"/>
<path style="fill-rule:nonzero;fill:rgb(100%,100%,100%);fill-opacity:1;stroke-width:1;stroke-linecap:butt;stroke-linejoin:miter;stroke:rgb(100%,100%,100%);stroke-opacity:1;stroke-miterlimit:4;" d="M 105.548507 84.250746 C 105.33694 84.932463 104.890299 86.742537 104.561194 88.247015 L 103.961754 90.997388 L 110.285261 90.997388 C 117.020149 90.997388 118.994776 89.96306 118.994776 86.413433 C 118.994776 83.921642 116.726306 83.028358 110.214739 83.016604 C 107.652425 83.004851 105.783582 83.498507 105.548507 84.250746 " transform="matrix(0.332341,0,0,0.332341,0,0)"/>
<path style="fill-rule:nonzero;fill:rgb(38.039216%,100%,100%);fill-opacity:1;stroke-width:1;stroke-linecap:butt;stroke-linejoin:miter;stroke:rgb(38.039216%,100%,100%);stroke-opacity:1;stroke-miterlimit:4;" d="M 125.694403 96.286567 C 123.519963 103.186007 123.566978 104.561194 126 106.994216 C 127.410448 108.404664 129.33806 109.004104 132.499813 109.004104 C 134.979851 109.004104 137.001493 108.745522 137.001493 108.428172 C 137.001493 106.430037 134.56847 103.997015 132.570336 103.997015 C 129.855224 103.997015 128.997201 102.457276 129.702425 98.801866 C 129.972761 97.391418 129.561381 95.040672 128.785634 93.571455 L 127.398694 90.903358 L 125.694403 96.286567 " transform="matrix(0.332341,0,0,0.332341,0,0)"/>
<path style="fill-rule:nonzero;fill:rgb(56.078431%,100%,100%);fill-opacity:1;stroke-width:1;stroke-linecap:butt;stroke-linejoin:miter;stroke:rgb(56.078431%,100%,100%);stroke-opacity:1;stroke-miterlimit:4;" d="M 169.688619 94.570522 C 169.371269 95.628358 168.61903 98.519776 167.996082 100.999813 C 167.384888 103.479851 166.656157 106.288993 166.374067 107.252799 C 165.986194 108.58097 166.456343 109.004104 168.360448 109.004104 C 170.558396 109.004104 170.993284 108.369403 172.051119 103.66791 C 173.050187 99.213246 172.991418 97.873321 171.745522 95.487313 C 170.417351 92.936754 170.19403 92.842724 169.688619 94.570522 " transform="matrix(0.332341,0,0,0.332341,0,0)"/>
<path style="fill-rule:nonzero;fill:rgb(60.392157%,100%,100%);fill-opacity:1;stroke-width:1;stroke-linecap:butt;stroke-linejoin:miter;stroke:rgb(60.392157%,100%,100%);stroke-opacity:1;stroke-miterlimit:4;" d="M 166.033209 78.75 C 166.103731 80.360261 168.80709 83.004851 170.370336 83.004851 C 171.569216 83.004851 171.980597 83.780597 171.827799 85.755224 C 171.569216 89.457649 173.872948 93.80653 175.095336 91.890672 C 177.657649 87.835634 172.979664 77.997761 168.489739 77.997761 C 167.114552 77.997761 166.009701 78.338619 166.033209 78.75 " transform="matrix(0.332341,0,0,0.332341,0,0)"/>
<path style="fill-rule:nonzero;fill:rgb(56.078431%,100%,100%);fill-opacity:1;stroke-width:1;stroke-linecap:butt;stroke-linejoin:miter;stroke:rgb(56.078431%,100%,100%);stroke-opacity:1;stroke-miterlimit:4;" d="M 140.245522 93.254104 C 142.126119 96.110261 148.038246 96.827239 150.377239 94.476493 C 153.174627 91.679104 152.199067 90.997388 145.381903 90.997388 L 138.752799 90.997388 L 140.245522 93.254104 " transform="matrix(0.332341,0,0,0.332341,0,0)"/>
<path style="fill-rule:nonzero;fill:rgb(41.960784%,100%,100%);fill-opacity:1;stroke-width:1;stroke-linecap:butt;stroke-linejoin:miter;stroke:rgb(41.960784%,100%,100%);stroke-opacity:1;stroke-miterlimit:4;" d="M 138.176866 106.50056 C 139.10541 108.533955 140.033955 109.004104 143.160448 109.004104 C 147.027425 109.004104 147.509328 108.48694 146.392724 105.583769 C 145.96959 104.467164 144.476866 103.997015 141.409142 103.997015 C 137.11903 103.997015 137.060261 104.04403 138.176866 106.50056 " transform="matrix(0.332341,0,0,0.332341,0,0)"/>
<path style="fill-rule:nonzero;fill:rgb(84.313725%,100%,100%);fill-opacity:1;stroke-width:1;stroke-linecap:butt;stroke-linejoin:miter;stroke:rgb(84.313725%,100%,100%);stroke-opacity:1;stroke-miterlimit:4;" d="M 173.661381 77.9625 C 185.297575 78.256343 194.60653 78.162313 194.347948 77.750933 C 194.089366 77.339552 184.568843 77.092724 173.191231 77.210261 L 152.504664 77.421828 L 173.661381 77.9625 " transform="matrix(0.332341,0,0,0.332341,0,0)"/>
<path style="fill-rule:nonzero;fill:rgb(41.960784%,100%,100%);fill-opacity:1;stroke-width:1;stroke-linecap:butt;stroke-linejoin:miter;stroke:rgb(41.960784%,100%,100%);stroke-opacity:1;stroke-miterlimit:4;" d="M 129.24403 84.979478 C 128.115672 87.247948 127.492724 89.105037 127.845336 89.116791 C 128.209701 89.128545 129.032463 90.115858 129.678918 91.314739 C 130.595709 93.01903 130.960075 93.171828 131.336194 91.996455 C 134.027799 83.686567 134.039552 83.604291 132.652612 82.229104 C 131.488993 81.065485 130.971828 81.476866 129.24403 84.979478 " transform="matrix(0.332341,0,0,0.332341,0,0)"/>
<path style="fill-rule:nonzero;fill:rgb(41.960784%,100%,100%);fill-opacity:1;stroke-width:1;stroke-linecap:butt;stroke-linejoin:miter;stroke:rgb(41.960784%,100%,100%);stroke-opacity:1;stroke-miterlimit:4;" d="M 135.579291 92.64291 C 134.521455 95.393284 134.968097 96.004478 138.012313 96.004478 C 140.762687 96.004478 140.915485 95.828172 139.775373 94.018097 C 138.129851 91.373507 136.296269 90.774067 135.579291 92.64291 " transform="matrix(0.332341,0,0,0.332341,0,0)"/>
<path style="fill-rule:nonzero;fill:rgb(57.254902%,100%,100%);fill-opacity:1;stroke-width:1;stroke-linecap:butt;stroke-linejoin:miter;stroke:rgb(57.254902%,100%,100%);stroke-opacity:1;stroke-miterlimit:4;" d="M 170.581903 90.868097 C 169.864925 92.031716 171.945336 97.003545 173.15597 97.003545 C 173.626119 97.003545 173.990485 96.216045 173.966978 95.252239 C 173.931716 92.925 171.357649 89.598694 170.581903 90.868097 " transform="matrix(0.332341,0,0,0.332341,0,0)"/>
<path style="fill-rule:nonzero;fill:rgb(57.254902%,100%,100%);fill-opacity:1;stroke-width:1;stroke-linecap:butt;stroke-linejoin:miter;stroke:rgb(57.254902%,100%,100%);stroke-opacity:1;stroke-miterlimit:4;" d="M 163.177052 80.501306 C 164.211381 82.758022 167.04403 84.07444 166.973507 82.252612 C 166.914739 80.900933 164.30541 77.997761 163.165299 77.997761 C 162.342537 77.997761 162.342537 78.667724 163.177052 80.501306 " transform="matrix(0.332341,0,0,0.332341,0,0)"/>
<path style="fill-rule:nonzero;fill:rgb(38.823529%,100%,100%);fill-opacity:1;stroke-width:1;stroke-linecap:butt;stroke-linejoin:miter;stroke:rgb(38.823529%,100%,100%);stroke-opacity:1;stroke-miterlimit:4;" d="M 122.144776 82.005784 C 123.590485 84.885448 124.51903 85.919776 124.742351 84.86194 C 124.942164 83.968657 123.931343 81.935261 122.497388 80.360261 L 119.899813 77.504104 L 122.144776 82.005784 " transform="matrix(0.332341,0,0,0.332341,0,0)"/>
<path style="fill-rule:nonzero;fill:rgb(38.823529%,100%,100%);fill-opacity:1;stroke-width:1;stroke-linecap:butt;stroke-linejoin:miter;stroke:rgb(38.823529%,100%,100%);stroke-opacity:1;stroke-miterlimit:4;" d="M 127.76306 89.563433 C 126.97556 90.362687 129.020709 95.00541 130.160821 95.00541 C 131.300933 95.00541 131.159888 93.924067 129.667164 91.220709 C 128.96194 89.96306 128.115672 89.222575 127.76306 89.563433 " transform="matrix(0.332341,0,0,0.332341,0,0)"/>
<path style="fill-rule:nonzero;fill:rgb(38.823529%,100%,100%);fill-opacity:1;stroke-width:1;stroke-linecap:butt;stroke-linejoin:miter;stroke:rgb(38.823529%,100%,100%);stroke-opacity:1;stroke-miterlimit:4;" d="M 136.178731 106.50056 C 136.813433 107.875746 137.694963 109.004104 138.165112 109.004104 C 139.269963 109.004104 139.222948 108.275373 137.965299 105.936381 C 136.42556 103.056716 134.838806 103.562127 136.178731 106.50056 " transform="matrix(0.332341,0,0,0.332341,0,0)"/>
<path style="fill-rule:nonzero;fill:rgb(42.352941%,100%,100%);fill-opacity:1;stroke-width:1;stroke-linecap:butt;stroke-linejoin:miter;stroke:rgb(42.352941%,100%,100%);stroke-opacity:1;stroke-miterlimit:4;" d="M 139.563806 93.747761 L 142.220149 96.498134 L 140.492351 93.747761 C 139.540299 92.243284 138.353172 90.997388 137.847761 90.997388 C 137.330597 90.997388 138.106343 92.243284 139.563806 93.747761 " transform="matrix(0.332341,0,0,0.332341,0,0)"/>
<path style="fill-rule:nonzero;fill:rgb(57.647059%,100%,100%);fill-opacity:1;stroke-width:1;stroke-linecap:butt;stroke-linejoin:miter;stroke:rgb(57.647059%,100%,100%);stroke-opacity:1;stroke-miterlimit:4;" d="M 171.040299 88.564366 C 171.016791 89.140299 171.698507 90.491978 172.55653 91.561567 C 173.966978 93.324627 173.966978 93.218843 172.591791 90.503731 C 171.757276 88.846455 171.063806 87.976679 171.040299 88.564366 " transform="matrix(0.332341,0,0,0.332341,0,0)"/>
<path style="fill-rule:nonzero;fill:rgb(57.647059%,100%,100%);fill-opacity:1;stroke-width:1;stroke-linecap:butt;stroke-linejoin:miter;stroke:rgb(57.647059%,100%,100%);stroke-opacity:1;stroke-miterlimit:4;" d="M 165.034142 78.56194 C 165.045896 79.079104 165.727612 80.372015 166.526866 81.441604 C 167.337873 82.511194 167.984328 82.957836 167.972575 82.440672 C 167.949067 81.923507 167.279104 80.630597 166.468097 79.561007 C 165.65709 78.491418 165.010634 78.044776 165.034142 78.56194 " transform="matrix(0.332341,0,0,0.332341,0,0)"/>
<path style="fill-rule:nonzero;fill:rgb(42.352941%,100%,100%);fill-opacity:1;stroke-width:1;stroke-linecap:butt;stroke-linejoin:miter;stroke:rgb(42.352941%,100%,100%);stroke-opacity:1;stroke-miterlimit:4;" d="M 146.016604 104.690485 C 146.028358 105.137127 146.463246 106.171455 147.003918 106.994216 C 147.838433 108.287127 147.967724 108.263619 147.979478 106.806157 C 147.991231 105.877612 147.54459 104.843284 147.003918 104.502425 C 146.451493 104.161567 146.004851 104.243843 146.016604 104.690485 " transform="matrix(0.332341,0,0,0.332341,0,0)"/>
<path style="fill-rule:nonzero;fill:rgb(56.078431%,100%,100%);fill-opacity:1;stroke-width:1;stroke-linecap:butt;stroke-linejoin:miter;stroke:rgb(56.078431%,100%,100%);stroke-opacity:1;stroke-miterlimit:4;" d="M 147.920709 105.748321 C 148.896269 107.417351 148.943284 107.417351 148.966791 105.748321 C 148.990299 104.784515 148.531903 103.997015 147.944216 103.997015 C 147.227239 103.997015 147.215485 104.54944 147.920709 105.748321 " transform="matrix(0.332341,0,0,0.332341,0,0)"/>
</g>
</svg>
